<?xml version="1.0" encoding="UTF-8"?>
<svg id="Layer_1" xmlns="http://www.w3.org/2000/svg" viewBox="0 0 452.27 535.76">
  <defs>
    <style>
      .cls-1 {
        fill: #fff;
        stroke: #fff;
        stroke-miterlimit: 10;
      }

      .cls-2 {
        fill: #fdd10c;
      }

      .cls-3 {
        fill: #f68b1f;
      }
    </style>
  </defs>
  <path class="cls-2" d="M73.5,462.14v20.69h-.07c-12.48,0-22.88-8.89-25.22-20.69h25.29Z"/>
  <path class="cls-2" d="M411.06,462.14c-1.01,5.09-3.52,9.64-7.04,13.16-4.65,4.65-11.08,7.53-18.18,7.53H129.12v-20.69h281.94Z"/>
  <path class="cls-2" d="M411.06,452.1H48.21c1.01-5.09,3.52-9.64,7.04-13.16,4.65-4.65,11.08-7.53,18.18-7.53h312.41c12.48,0,22.88,8.89,25.22,20.69Z"/>
  <polygon class="cls-3" points="78.17 456.3 124.45 456.3 124.45 535.76 101.31 514.16 78.17 535.76 78.17 456.3"/>
  <path class="cls-1" d="M432.26,317.11h3.38c8.85,0,16.04,7.19,16.04,16.04v9.78c0,39.85-32.36,72.21-72.21,72.21h-21.93c-6.43,0-11.65-5.22-11.65-11.65h0c0-47.67,38.7-86.37,86.37-86.37Z"/>
  <path class="cls-1" d="M357.63.5h21.93c39.85,0,72.21,32.36,72.21,72.21v9.78c0,8.85-7.19,16.04-16.04,16.04h-3.38c-47.67,0-86.37-38.7-86.37-86.37h0c0-6.43,5.22-11.65,11.65-11.65Z"/>
  <path class="cls-1" d="M62.94,317.11c-9.12,0-23.5.71-34.89,4.08-15.33,5.62-15.84,16.59-20.18,20.17-5.62,3.57-6.52-.12-6.52-5l.37-140.62c0-16.7,13.54-30.25,30.25-30.25h30.98c4.89,0,8.86,3.97,8.86,8.86v133.9c0,4.89.26,8.87-8.86,8.86Z"/>
  <path class="cls-1" d="M71.5,1.9v67.62h-2.2c-25.13,0-47.68,11.08-63.08,28.64-2.45-1.24-4.23-3.6-4.72-6.4l.03-11.72C3.32,49.83,20.93,23.91,46.16,10.51c7.8-4.16,16.33-7.11,25.34-8.61Z"/>
  <path class="cls-1" d="M70.5,84.01v72.51l-3.64-.04c-25.13,0-48.69-4.87-64.09,12.69-2.45-1.24-1.78-2.36-2.27-5.16l.03-11.72c1.79-30.21,17.7-45.42,33.2-56.03,19.32-12.26,27.28-10.88,36.77-12.26Z"/>
  <path class="cls-1" d="M.75,471.48c-.04-.41-.05-.85-.05-1.3v-.59c0,.63.02,1.26.05,1.89Z"/>
  <g>
    <path class="cls-1" d="M71.15,350.73v66.02c-11.15.99-21.07,5.91-28.22,13.25-7.14,7.35-11.5,17.14-11.5,27.88,0,18.11,12.38,33.49,29.62,39.08v26.29h-9.98c-27.14,0-49.27-21.47-50.32-48.35-.03-.63-.05-1.26-.05-1.89v-.13l.02-5.25h0s.23-66.8.23-66.8c-.25-34.6,22.96-56.82,39.67-56.82h21.67c4.89,0,8.86,3.01,8.86,6.72Z"/>
    <path class="cls-1" d="M451.68,470.33c-.36,14.45-6.37,27.49-15.89,37.01-9.83,9.83-23.41,15.91-38.41,15.91h-1.75c29.92,0,54.38-23.41,56.05-52.92Z"/>
  </g>
  <path class="cls-1" d="M451.77,410.93v56.18c0,1.07-.03,2.14-.09,3.2v.02c-1.67,29.51-26.13,52.92-56.05,52.92h-253.89v-24.05h258.04c13.91,0,25.18-11.27,25.18-25.17v-46.5c10.14-3.52,19.27-9.24,26.81-16.6Z"/>
  <path class="cls-1" d="M398.85,105.34c-36.02,0-65.48-29.47-65.48-65.48V11.3c0-5.97-4.84-10.8-10.8-10.8H93.77c-5.33,0-9.66,4.32-9.66,9.66v381.53c0,12.95,10.5,23.45,23.45,23.45h215.27c5.82,0,10.54-4.72,10.54-10.54v-28.81c0-36.02,29.47-65.48,65.48-65.48h52.91V105.34h-52.91ZM233.62,354.9c-20.87,0-37.79-16.92-37.79-37.79s16.92-37.79,37.79-37.79,37.79,16.92,37.79,37.79-16.92,37.79-37.79,37.79ZM301.04,211.56c-30.98,14.3-28.93,40.17-28.93,40.17h-72.17s3.74-51.74,37.44-64.34c52.42-18.39,44.59-58.21,20.42-67.75-39.15-12.25-47.66,8.51-57.87,30.98-10.21,22.47-29.28,26.55-48.68,17.36s-13.96-46.64-8.17-56.85c5.79-10.21,59.91-88.85,146.04-45.96,105.19,64,32.69,134.47,11.92,146.38Z"/>
</svg>