<?xml version="1.0" encoding="UTF-8"?>
<svg xmlns="http://www.w3.org/2000/svg" version="1.1" viewBox="0 0 452.3 536.5">
  <defs>
    <style>
      .cls-1 {
        fill: #231f20;
      }

      .cls-1, .cls-2 {
        stroke: #fff;
        stroke-miterlimit: 10;
      }

      .cls-2 {
        fill: #fff;
      }

      .cls-3 {
        fill: #fdd10c;
      }

      .cls-4 {
        fill: #f68b1f;
      }
    </style>
  </defs>
  <!-- Generator: Adobe Illustrator 28.6.0, SVG Export Plug-In . SVG Version: 1.2.0 Build 709)  -->
  <g>
    <g id="Layer_1">
      <path class="cls-1" d="M432.3,317.1h3.4c8.9,0,16,7.2,16,16v9.8c0,39.9-32.4,72.2-72.2,72.2h-21.9c-6.4,0-11.6-5.2-11.6-11.6h0c0-47.7,38.7-86.4,86.4-86.4h0Z"/>
      <path class="cls-1" d="M357.6.5h21.9c39.9,0,72.2,32.4,72.2,72.2v9.8c0,8.8-7.2,16-16,16h-3.4c-47.7,0-86.4-38.7-86.4-86.4h0c0-6.4,5.2-11.6,11.6-11.6h0Z"/>
      <path class="cls-1" d="M62.9,317.1c-9.1,0-23.5.7-34.9,4.1-15.3,5.6-15.8,16.6-20.2,20.2-5.6,3.6-6.5-.1-6.5-5l.4-140.6c0-16.7,13.5-30.2,30.3-30.2h31c4.9,0,8.9,4,8.9,8.9v133.9c0,4.9.3,8.9-8.9,8.9h0Z"/>
      <path class="cls-1" d="M71.5,1.9v67.6h-2.2c-25.1,0-47.7,11.1-63.1,28.6-2.5-1.2-4.2-3.6-4.7-6.4v-11.7C3.3,49.8,20.9,23.9,46.2,10.5c7.8-4.2,16.3-7.1,25.3-8.6Z"/>
      <path class="cls-1" d="M70.5,84v72.5h-3.6c-25.1,0-48.7-4.9-64.1,12.7-2.5-1.2-1.8-2.4-2.3-5.2v-11.7c1.8-30.2,17.7-45.4,33.2-56,19.3-12.3,27.3-10.9,36.8-12.3h0Z"/>
      <path class="cls-2" d="M.8,471.5c0-.4,0-.9,0-1.3v-.6c0,.6,0,1.3,0,1.9h0Z"/>
      <g>
        <path class="cls-1" d="M71.2,350.7v66c-11.2,1-21.1,5.9-28.2,13.2-7.1,7.4-11.5,17.1-11.5,27.9,0,18.1,12.4,33.5,29.6,39.1v26.3h-10c-27.1,0-49.3-21.5-50.3-48.4,0-.6,0-1.3,0-1.9h0c0-.1,0-5.4,0-5.4h0l.2-66.8c-.2-34.6,23-56.8,39.7-56.8h21.7c4.9,0,8.9,3,8.9,6.7h0Z"/>
        <path class="cls-1" d="M451.7,470.3c-.4,14.5-6.4,27.5-15.9,37s-23.4,15.9-38.4,15.9h-1.8c29.9,0,54.4-23.4,56-52.9h0Z"/>
      </g>
      <path class="cls-1" d="M451.8,410.9v56.2c0,1.1,0,2.1,0,3.2h0c-1.7,29.5-26.1,52.9-56,52.9h-253.9v-24h258c13.9,0,25.2-11.3,25.2-25.2v-46.5c10.1-3.5,19.3-9.2,26.8-16.6h0Z"/>
      <path class="cls-1" d="M398.9,105.3c-36,0-65.5-29.5-65.5-65.5V11.3c0-6-4.8-10.8-10.8-10.8H93.8c-5.3,0-9.7,4.3-9.7,9.7v381.5c0,13,10.5,23.5,23.4,23.5h215.3c5.8,0,10.5-4.7,10.5-10.5v-28.8c0-36,29.5-65.5,65.5-65.5h52.9V105.3h-52.9ZM233.6,354.9c-20.9,0-37.8-16.9-37.8-37.8s16.9-37.8,37.8-37.8,37.8,16.9,37.8,37.8-16.9,37.8-37.8,37.8ZM301,211.6c-31,14.3-28.9,40.2-28.9,40.2h-72.2s3.7-51.7,37.4-64.3c52.4-18.4,44.6-58.2,20.4-67.8-39.1-12.2-47.7,8.5-57.9,31-10.2,22.5-29.3,26.6-48.7,17.4s-14-46.6-8.2-56.8c5.8-10.2,59.9-88.8,146-46,105.2,64,32.7,134.5,11.9,146.4h0Z"/>
      <path class="cls-3" d="M73.5,462.9v20.7h0c-12.5,0-22.9-8.9-25.2-20.7h25.3Z"/>
      <path class="cls-3" d="M411.1,462.9c-1,5.1-3.5,9.6-7,13.2-4.6,4.6-11.1,7.5-18.2,7.5H129.1v-20.7h281.9Z"/>
      <path class="cls-3" d="M411.1,452.9H48.2c1-5.1,3.5-9.6,7-13.2,4.7-4.6,11.1-7.5,18.2-7.5h312.4c12.5,0,22.9,8.9,25.2,20.7Z"/>
      <polygon class="cls-4" points="78.2 457.1 124.4 457.1 124.4 536.5 101.3 514.9 78.2 536.5 78.2 457.1"/>
    </g>
  </g>
</svg>